<svg xmlns="http://www.w3.org/2000/svg" width="162" height="40" viewBox="0 0 162 40">
    <g fill="none" fill-rule="evenodd">
        <path fill="#3F464A" d="M69.84 16.951c.534 0 .848.313.848.845v14.015c0 4.946-2.765 7.482-8.108 7.482-1.916 0-3.99-.47-5.467-1.252-.44-.219-.567-.564-.503-1.065l.314-1.594c.094-.595.503-1.16 1.068-.91 1.477.595 3.08 1.002 4.243 1.002 2.325 0 3.488-.845 3.488-3.381v-1.124c-1.1 1.315-2.828 2.066-4.808 2.066-3.677 0-5.971-2.783-5.971-8.323 0-5.542 2.577-8.325 6.725-8.325 1.634 0 3.268.815 4.368 2.16v-.75c0-.533.315-.846.849-.846h2.954zm7.911 9.438c.36 2.245 1.683 3.473 3.816 3.473.932 0 2.074-.27 3.005-.689.48-.24.842-.15 1.142.24l.962 1.347c.3.419.27.838-.15 1.107-1.533 1.048-3.757 1.677-5.8 1.677-4.838 0-7.843-3.323-7.843-8.622 0-5.298 3.005-8.62 7.843-8.62 4.477 0 7.031 2.993 7.031 7.962 0 .419-.03.898-.09 1.347-.06.509-.36.778-.871.778H77.75zm57.811-10.075c.524 0 .832.307.832.828v10.345c0 1.473.555 2.148 1.726 2.148.955 0 1.848-.614 2.464-1.75V17.142c0-.521.339-.828.863-.828h3.174c.554 0 .863.307.863.828v15.455c0 .552-.309.86-.863.86h-2.865c-.555 0-.864-.308-.864-.86v-1.611c-1.047 1.627-2.957 2.455-4.683 2.455-2.896 0-4.683-1.995-4.683-5.187V17.142c0-.521.308-.828.832-.828h3.204zm-13.993.064c-4.787 0-7.76 3.288-7.76 8.532 0 5.243 2.973 8.531 7.76 8.531 4.788 0 7.761-3.288 7.761-8.531 0-5.244-2.973-8.532-7.76-8.532zm-10.807 2.613c.552 0 .858.306.858.825v12.75c0 .55-.306.856-.858.856h-3.158c-.552 0-.859-.306-.859-.855V19.816c0-.519.307-.825.859-.825h3.158zm-75.726 0c.552 0 .859.306.859.825v12.75c0 .55-.307.856-.859.856h-3.158c-.551 0-.858-.306-.858-.855V19.816c0-.519.307-.825.858-.825h3.158zm58.75-2.063c.551 0 .858.306.858.825v1.1c1.042-1.59 2.943-2.475 4.721-2.475 2.822 0 4.661 2.077 4.661 5.162v11.027c0 .55-.307.855-.828.855h-3.188c-.522 0-.828-.305-.828-.855V22.273c0-1.313-.614-2.077-1.717-2.077-1.043 0-2.055.703-2.637 1.955v10.416c0 .55-.307.855-.859.855h-3.158c-.552 0-.859-.305-.859-.855V17.753c0-.52.307-.825.86-.825h2.974zm-51.308 0c.552 0 .858.306.858.825v1.1c1.043-1.59 2.944-2.475 4.722-2.475 2.82 0 4.66 2.077 4.66 5.162v11.027c0 .55-.306.855-.827.855h-3.189c-.521 0-.828-.305-.828-.855V22.273c0-1.313-.613-2.077-1.717-2.077-1.042 0-2.054.703-2.637 1.955v10.416c0 .55-.306.855-.858.855h-3.158c-.552 0-.86-.305-.86-.855V17.753c0-.52.308-.825.86-.825h2.974zm112.813 6.15c-1.874-.534-2.884-.83-2.884-1.897 0-.799.862-1.332 2.08-1.332 1.042 0 2.172.266 3.035.71.475.208.832.178 1.13-.266l1.07-1.481c.327-.474.268-.889-.208-1.126-1.517-.859-3.599-1.392-5.412-1.392-3.985 0-6.424 1.896-6.424 5.036 0 3.495 3.093 4.473 5.323 5.095 1.695.444 2.676.74 2.676 1.896 0 .888-.892 1.48-2.408 1.48-1.16 0-2.528-.414-3.598-1.065-.446-.267-.833-.237-1.13.207l-1.1 1.51c-.298.415-.268.83.148 1.156 1.517 1.066 3.776 1.748 5.888 1.748 4.223 0 7.047-2.133 7.047-5.273 0-3.584-2.913-4.384-5.233-5.007zm-33.722 6.66c-1.843 0-2.914-1.777-2.914-4.828 0-3.081 1.071-4.8 2.914-4.8 1.844 0 2.915 1.719 2.915 4.8 0 3.05-1.071 4.828-2.915 4.828zm-55.846-3.63c0 1.574-1.224 2.911-2.802 2.98-.05.002-.101.003-.152.003-1.76 0-2.671-.999-2.671-4.286 0-3.318 1.006-4.504 2.797-4.504.634 0 1.22.223 1.73.624a2.93 2.93 0 0 1 1.098 2.31v2.873zm17.467-2.652c-.06-2.395-.961-3.712-2.584-3.712-1.713 0-2.704 1.287-2.975 3.712h5.559zm27.633-9.713c.522 0 .828.305.828.824v2.17c0 .549-.306.854-.828.854h-3.28c-.522 0-.828-.305-.828-.855v-2.169c0-.52.306-.824.827-.824h3.281zm-75.725 0c.521 0 .828.305.828.824v2.17c0 .549-.307.854-.828.854h-3.281c-.521 0-.828-.305-.828-.855v-2.169c0-.52.307-.824.828-.824h3.28z"/>
        <path fill="#2D2925" fill-opacity=".1" d="M12.717 15.058c6.243 0 11.312 4.933 11.312 11.01 0 6.076-5.069 11.009-11.312 11.009-6.244 0-11.313-4.933-11.313-11.01 0-6.076 5.07-11.009 11.313-11.009z"/>
        <path fill="#FF7E32" d="M12.717 13.98c2.466 0 4.932.465 5.64 1.394.345.414.897 1.145 1.034 1.973.253 3.405-3.456 14.894-5.335 20.084-.188.52-.542 1.444-1.335 1.44-.793-.005-1.156-.923-1.344-1.44-1.879-5.19-5.587-16.68-5.334-20.084.137-.828.688-1.56 1.034-1.973.708-.929 3.174-1.394 5.64-1.394z"/>
        <path fill="#046A37" d="M7.5 8.845c-.667-.841-2.096-1.454-2.719-1.198-.417.171-.554.645-.424 1.255.29 1.366.943 2.533 1.778 3.517.14.164.32.279.52.325 1.327.31 2.781.44 4.315.455.052 0 .155-.029.187-.138.031-.11-.04-.202-.094-.254C9.49 11.257 8.604 10.24 7.5 8.845zM15.2 7.42c-.014-.767 1.072-2.397 1.64-2.403.486-.005.655.359.781.669.511 1.251.735 2.524.647 3.803a1.028 1.028 0 0 1-.222.577c-.875 1.08-1.955 2.102-3.167 3.086-.041.034-.14.078-.23.015-.089-.064-.086-.18-.074-.253.382-2.426.458-3.406.626-5.495z"/>
        <path fill="#094" d="M9.516.945c.14-.001.28.024.417.076 1.402.541 2.663 1.42 3.783 2.633.172.187.28.427.307.682.254 2.46-.057 5.415-.596 8.57a.3.3 0 0 1-.287.252h-.005a.293.293 0 0 1-.204-.08c-2.273-2.086-4.268-4.205-5.656-6.394a1.218 1.218 0 0 1-.184-.73c.098-1.543.602-3.013 1.427-4.424a1.17 1.17 0 0 1 .986-.585h.012z"/>
        <path fill="#D86017" d="M10.334 29.508c0-.647-.54-1.172-1.204-1.172-.664 0-1.203.525-1.203 1.172 0 .646.539 1.171 1.203 1.171.665 0 1.204-.525 1.204-1.171zm6.003 1.171h-2.654c-.665 0-1.204-.525-1.204-1.171 0-.647.54-1.172 1.204-1.172h2.654c.665 0 1.204.525 1.204 1.172 0 .646-.54 1.171-1.204 1.171zm.14-5.69c0-.647.54-1.172 1.205-1.172.664 0 1.203.525 1.203 1.172 0 .646-.539 1.171-1.203 1.171-.665 0-1.204-.525-1.204-1.171zm-3.342 1.171h-5.37c-.665 0-1.204-.525-1.204-1.171 0-.647.54-1.172 1.204-1.172h5.37c.664 0 1.203.525 1.203 1.172 0 .646-.539 1.171-1.203 1.171zm5.66-4.417H11.19c-.665 0-1.204-.525-1.204-1.171 0-.647.54-1.172 1.204-1.172h7.604c.665 0 1.204.525 1.204 1.172 0 .646-.54 1.171-1.204 1.171zM7.842 20.572c0-.647-.54-1.172-1.204-1.172-.664 0-1.204.525-1.204 1.172 0 .646.54 1.171 1.204 1.171.665 0 1.204-.525 1.204-1.171z"/>
    </g>
</svg>
